<svg width="436" height="83" viewBox="0 0 436 83" fill="none" xmlns="http://www.w3.org/2000/svg">
<path d="M11.4953 37C11.2286 37 10.9886 36.9067 10.7753 36.72C10.5886 36.5067 10.4953 36.2667 10.4953 36V10C10.4953 9.70667 10.5886 9.46667 10.7753 9.28C10.9886 9.09333 11.2286 9 11.4953 9H15.7353C16.402 9 16.8553 9.25333 17.0953 9.76L26.8553 25.12V10C26.8553 9.70667 26.9486 9.46667 27.1353 9.28C27.3486 9.09333 27.5886 9 27.8553 9H32.6553C32.9486 9 33.1886 9.09333 33.3753 9.28C33.562 9.46667 33.6553 9.70667 33.6553 10V35.96C33.6553 36.2533 33.562 36.5067 33.3753 36.72C33.1886 36.9067 32.9486 37 32.6553 37H28.3753C27.7886 37 27.3486 36.7467 27.0553 36.24L17.2953 21.44V36C17.2953 36.2667 17.202 36.5067 17.0153 36.72C16.8286 36.9067 16.5886 37 16.2953 37H11.4953ZM50.6853 37.4C46.9253 37.4 43.9653 36.48 41.8053 34.64C39.6453 32.8 38.4986 30.0933 38.3653 26.52C38.3386 25.7467 38.3253 24.6 38.3253 23.08C38.3253 21.5333 38.3386 20.3733 38.3653 19.6C38.4986 16.08 39.6586 13.3733 41.8453 11.48C44.0586 9.56 47.0053 8.6 50.6853 8.6C54.3653 8.6 57.312 9.56 59.5253 11.48C61.7386 13.3733 62.8986 16.08 63.0053 19.6C63.0586 21.1467 63.0853 22.3067 63.0853 23.08C63.0853 23.8267 63.0586 24.9733 63.0053 26.52C62.872 30.0933 61.7253 32.8 59.5653 34.64C57.4053 36.48 54.4453 37.4 50.6853 37.4ZM50.6853 31.64C52.152 31.64 53.312 31.2 54.1653 30.32C55.0453 29.44 55.512 28.0933 55.5653 26.28C55.6186 24.7333 55.6453 23.64 55.6453 23C55.6453 22.3067 55.6186 21.2133 55.5653 19.72C55.512 17.9067 55.0453 16.56 54.1653 15.68C53.2853 14.8 52.1253 14.36 50.6853 14.36C49.2453 14.36 48.0853 14.8 47.2053 15.68C46.352 16.56 45.8853 17.9067 45.8053 19.72C45.7786 20.4667 45.7653 21.56 45.7653 23C45.7653 24.4133 45.7786 25.5067 45.8053 26.28C45.8853 28.0933 46.352 29.44 47.2053 30.32C48.0586 31.2 49.2186 31.64 50.6853 31.64ZM68.7219 37C68.4552 37 68.2152 36.9067 68.0019 36.72C67.8152 36.5067 67.7219 36.2667 67.7219 36V10C67.7219 9.70667 67.8152 9.46667 68.0019 9.28C68.2152 9.09333 68.4552 9 68.7219 9H79.6019C83.0952 9 85.8152 9.8 87.7619 11.4C89.7352 12.9733 90.7219 15.2133 90.7219 18.12C90.7219 19.9867 90.2819 21.5733 89.4019 22.88C88.5219 24.1867 87.3085 25.1867 85.7619 25.88L91.2419 35.72C91.3219 35.88 91.3619 36.0267 91.3619 36.16C91.3619 36.3733 91.2685 36.5733 91.0819 36.76C90.9219 36.92 90.7352 37 90.5219 37H85.2019C84.4285 37 83.8819 36.64 83.5619 35.92L79.0019 27.12H74.9219V36C74.9219 36.2933 74.8152 36.5333 74.6019 36.72C74.4152 36.9067 74.1752 37 73.8819 37H68.7219ZM79.5219 21.44C80.7485 21.44 81.6819 21.1467 82.3219 20.56C82.9619 19.9467 83.2819 19.1067 83.2819 18.04C83.2819 16.9733 82.9619 16.1333 82.3219 15.52C81.7085 14.88 80.7752 14.56 79.5219 14.56H74.9219V21.44H79.5219ZM102.265 37C101.998 37 101.758 36.9067 101.545 36.72C101.358 36.5067 101.265 36.2667 101.265 36V15.28H94.1447C93.878 15.28 93.638 15.1867 93.4247 15C93.238 14.7867 93.1447 14.5467 93.1447 14.28V10C93.1447 9.70667 93.238 9.46667 93.4247 9.28C93.638 9.09333 93.878 9 94.1447 9H115.665C115.958 9 116.198 9.09333 116.385 9.28C116.571 9.46667 116.665 9.70667 116.665 10V14.28C116.665 14.5733 116.571 14.8133 116.385 15C116.198 15.1867 115.958 15.28 115.665 15.28H108.545V36C108.545 36.2667 108.451 36.5067 108.265 36.72C108.078 36.9067 107.838 37 107.545 37H102.265ZM121.3 37C121.007 37 120.767 36.9067 120.58 36.72C120.393 36.5333 120.3 36.2933 120.3 36V10C120.3 9.70667 120.393 9.46667 120.58 9.28C120.793 9.09333 121.033 9 121.3 9H126.46C126.753 9 126.993 9.09333 127.18 9.28C127.393 9.46667 127.5 9.70667 127.5 10V19.64H137.34V10C137.34 9.70667 137.433 9.46667 137.62 9.28C137.807 9.09333 138.047 9 138.34 9H143.5C143.793 9 144.033 9.09333 144.22 9.28C144.407 9.46667 144.5 9.70667 144.5 10V36C144.5 36.2933 144.407 36.5333 144.22 36.72C144.033 36.9067 143.793 37 143.5 37H138.34C138.047 37 137.807 36.9067 137.62 36.72C137.433 36.5333 137.34 36.2933 137.34 36V26.04H127.5V36C127.5 36.2933 127.393 36.5333 127.18 36.72C126.993 36.9067 126.753 37 126.46 37H121.3Z" fill="white"/>
<path d="M12.4368 67C12.2035 67 11.9935 66.9183 11.8068 66.755C11.6435 66.5683 11.5618 66.3583 11.5618 66.125V43.375C11.5618 43.1183 11.6435 42.9083 11.8068 42.745C11.9935 42.5817 12.2035 42.5 12.4368 42.5H17.0568C17.3135 42.5 17.5235 42.5817 17.6868 42.745C17.8501 42.9083 17.9318 43.1183 17.9318 43.375V61.715H28.5368C28.7935 61.715 29.0035 61.8083 29.1668 61.995C29.3302 62.1583 29.4118 62.3683 29.4118 62.625V66.125C29.4118 66.3583 29.3302 66.5683 29.1668 66.755C29.0035 66.9183 28.7935 67 28.5368 67H12.4368ZM42.148 67.35C38.858 67.35 36.268 66.545 34.378 64.935C32.488 63.325 31.4847 60.9567 31.368 57.83C31.3447 57.1533 31.333 56.15 31.333 54.82C31.333 53.4667 31.3447 52.4517 31.368 51.775C31.4847 48.695 32.4997 46.3267 34.413 44.67C36.3497 42.99 38.928 42.15 42.148 42.15C45.368 42.15 47.9463 42.99 49.883 44.67C51.8197 46.3267 52.8347 48.695 52.928 51.775C52.9747 53.1283 52.998 54.1433 52.998 54.82C52.998 55.4733 52.9747 56.4767 52.928 57.83C52.8113 60.9567 51.808 63.325 49.918 64.935C48.028 66.545 45.438 67.35 42.148 67.35ZM42.148 62.31C43.4313 62.31 44.4463 61.925 45.193 61.155C45.963 60.385 46.3713 59.2067 46.418 57.62C46.4647 56.2667 46.488 55.31 46.488 54.75C46.488 54.1433 46.4647 53.1867 46.418 51.88C46.3713 50.2933 45.963 49.115 45.193 48.345C44.423 47.575 43.408 47.19 42.148 47.19C40.888 47.19 39.873 47.575 39.103 48.345C38.3563 49.115 37.948 50.2933 37.878 51.88C37.8547 52.5333 37.843 53.49 37.843 54.75C37.843 55.9867 37.8547 56.9433 37.878 57.62C37.948 59.2067 38.3563 60.385 39.103 61.155C39.8497 61.925 40.8647 62.31 42.148 62.31ZM57.93 67C57.6966 67 57.4866 66.9183 57.3 66.755C57.1366 66.5683 57.055 66.3583 57.055 66.125V43.375C57.055 43.1183 57.1366 42.9083 57.3 42.745C57.4866 42.5817 57.6966 42.5 57.93 42.5H61.64C62.2233 42.5 62.62 42.7217 62.83 43.165L71.37 56.605V43.375C71.37 43.1183 71.4516 42.9083 71.615 42.745C71.8016 42.5817 72.0116 42.5 72.245 42.5H76.445C76.7016 42.5 76.9116 42.5817 77.075 42.745C77.2383 42.9083 77.32 43.1183 77.32 43.375V66.09C77.32 66.3467 77.2383 66.5683 77.075 66.755C76.9116 66.9183 76.7016 67 76.445 67H72.7C72.1866 67 71.8016 66.7783 71.545 66.335L63.005 53.385V66.125C63.005 66.3583 62.9233 66.5683 62.76 66.755C62.5966 66.9183 62.3866 67 62.13 67H57.93ZM83.0862 67C82.8529 67 82.6429 66.9183 82.4562 66.755C82.2929 66.5683 82.2112 66.3583 82.2112 66.125V43.375C82.2112 43.1183 82.2929 42.9083 82.4562 42.745C82.6429 42.5817 82.8529 42.5 83.0862 42.5H92.1862C95.6162 42.5 98.2762 43.3167 100.166 44.95C102.056 46.5833 103.048 48.9517 103.141 52.055C103.165 52.7317 103.176 53.63 103.176 54.75C103.176 55.87 103.165 56.7567 103.141 57.41C103.025 60.6533 102.056 63.0683 100.236 64.655C98.4396 66.2183 95.8146 67 92.3612 67H83.0862ZM92.1862 61.96C93.7262 61.96 94.8579 61.5983 95.5812 60.875C96.3046 60.1283 96.6896 58.95 96.7362 57.34C96.7829 56.6633 96.8062 55.7883 96.8062 54.715C96.8062 53.6417 96.7829 52.7783 96.7362 52.125C96.6896 50.5617 96.2696 49.4067 95.4762 48.66C94.7062 47.9133 93.5512 47.54 92.0112 47.54H88.5112V61.96H92.1862ZM117.275 67.35C113.985 67.35 111.395 66.545 109.505 64.935C107.615 63.325 106.612 60.9567 106.495 57.83C106.472 57.1533 106.46 56.15 106.46 54.82C106.46 53.4667 106.472 52.4517 106.495 51.775C106.612 48.695 107.627 46.3267 109.54 44.67C111.477 42.99 114.055 42.15 117.275 42.15C120.495 42.15 123.073 42.99 125.01 44.67C126.947 46.3267 127.962 48.695 128.055 51.775C128.102 53.1283 128.125 54.1433 128.125 54.82C128.125 55.4733 128.102 56.4767 128.055 57.83C127.938 60.9567 126.935 63.325 125.045 64.935C123.155 66.545 120.565 67.35 117.275 67.35ZM117.275 62.31C118.558 62.31 119.573 61.925 120.32 61.155C121.09 60.385 121.498 59.2067 121.545 57.62C121.592 56.2667 121.615 55.31 121.615 54.75C121.615 54.1433 121.592 53.1867 121.545 51.88C121.498 50.2933 121.09 49.115 120.32 48.345C119.55 47.575 118.535 47.19 117.275 47.19C116.015 47.19 115 47.575 114.23 48.345C113.483 49.115 113.075 50.2933 113.005 51.88C112.982 52.5333 112.97 53.49 112.97 54.75C112.97 55.9867 112.982 56.9433 113.005 57.62C113.075 59.2067 113.483 60.385 114.23 61.155C114.977 61.925 115.992 62.31 117.275 62.31ZM133.057 67C132.824 67 132.614 66.9183 132.427 66.755C132.264 66.5683 132.182 66.3583 132.182 66.125V43.375C132.182 43.1183 132.264 42.9083 132.427 42.745C132.614 42.5817 132.824 42.5 133.057 42.5H136.767C137.35 42.5 137.747 42.7217 137.957 43.165L146.497 56.605V43.375C146.497 43.1183 146.579 42.9083 146.742 42.745C146.929 42.5817 147.139 42.5 147.372 42.5H151.572C151.829 42.5 152.039 42.5817 152.202 42.745C152.365 42.9083 152.447 43.1183 152.447 43.375V66.09C152.447 66.3467 152.365 66.5683 152.202 66.755C152.039 66.9183 151.829 67 151.572 67H147.827C147.314 67 146.929 66.7783 146.672 66.335L138.132 53.385V66.125C138.132 66.3583 138.05 66.5683 137.887 66.755C137.724 66.9183 137.514 67 137.257 67H133.057Z" fill="white"/>
<path d="M164.293 0V82.2192" stroke="white"/>
<path d="M174.75 27C174.583 27 174.442 26.95 174.325 26.85C174.225 26.7333 174.175 26.5917 174.175 26.425V10.1C174.175 9.91667 174.225 9.775 174.325 9.675C174.442 9.55833 174.583 9.5 174.75 9.5H181.1C182.983 9.5 184.467 9.95833 185.55 10.875C186.633 11.7917 187.175 13.1167 187.175 14.85C187.175 16.5833 186.633 17.9083 185.55 18.825C184.483 19.725 183 20.175 181.1 20.175H176.675V26.425C176.675 26.5917 176.617 26.7333 176.5 26.85C176.383 26.95 176.242 27 176.075 27H174.75ZM180.975 18.075C182.192 18.075 183.108 17.8 183.725 17.25C184.358 16.7 184.675 15.9 184.675 14.85C184.675 13.8 184.367 13 183.75 12.45C183.133 11.8833 182.208 11.6 180.975 11.6H176.65V18.075H180.975ZM190.79 27C190.623 27 190.482 26.95 190.365 26.85C190.265 26.7333 190.215 26.5917 190.215 26.425V10.1C190.215 9.91667 190.265 9.775 190.365 9.675C190.482 9.55833 190.623 9.5 190.79 9.5H196.89C198.807 9.5 200.307 9.95 201.39 10.85C202.473 11.75 203.015 13.05 203.015 14.75C203.015 16.0167 202.698 17.0583 202.065 17.875C201.448 18.6917 200.573 19.2583 199.44 19.575L203.29 26.225C203.34 26.325 203.365 26.4167 203.365 26.5C203.365 26.6333 203.307 26.75 203.19 26.85C203.09 26.95 202.973 27 202.84 27H201.64C201.39 27 201.19 26.9417 201.04 26.825C200.907 26.7083 200.782 26.5417 200.665 26.325L197.04 19.975H192.665V26.425C192.665 26.5917 192.607 26.7333 192.49 26.85C192.373 26.95 192.232 27 192.065 27H190.79ZM196.79 17.85C199.273 17.85 200.515 16.8083 200.515 14.725C200.515 12.6417 199.273 11.6 196.79 11.6H192.665V17.85H196.79ZM212.872 27.25C210.689 27.25 208.997 26.6833 207.797 25.55C206.614 24.4 205.989 22.675 205.922 20.375C205.906 19.875 205.897 19.1667 205.897 18.25C205.897 17.3333 205.906 16.6333 205.922 16.15C205.989 13.9 206.639 12.1917 207.872 11.025C209.106 9.84167 210.772 9.25 212.872 9.25C214.956 9.25 216.614 9.84167 217.847 11.025C219.081 12.1917 219.731 13.9 219.797 16.15C219.831 17.1167 219.847 17.8167 219.847 18.25C219.847 18.6667 219.831 19.375 219.797 20.375C219.731 22.675 219.097 24.4 217.897 25.55C216.714 26.6833 215.039 27.25 212.872 27.25ZM212.872 25.125C214.189 25.125 215.239 24.725 216.022 23.925C216.806 23.125 217.231 21.9 217.297 20.25C217.331 19.25 217.347 18.5833 217.347 18.25C217.347 17.8833 217.331 17.2167 217.297 16.25C217.231 14.6 216.797 13.375 215.997 12.575C215.214 11.775 214.172 11.375 212.872 11.375C211.556 11.375 210.497 11.775 209.697 12.575C208.914 13.375 208.489 14.6 208.422 16.25C208.406 16.7333 208.397 17.4 208.397 18.25C208.397 19.0833 208.406 19.75 208.422 20.25C208.489 21.9 208.914 23.125 209.697 23.925C210.497 24.725 211.556 25.125 212.872 25.125ZM224.066 27C223.9 27 223.758 26.95 223.641 26.85C223.541 26.7333 223.491 26.5917 223.491 26.425V10.1C223.491 9.91667 223.541 9.775 223.641 9.675C223.758 9.55833 223.9 9.5 224.066 9.5H234.266C234.45 9.5 234.591 9.55833 234.691 9.675C234.808 9.775 234.866 9.91667 234.866 10.1V11.1C234.866 11.2667 234.808 11.4083 234.691 11.525C234.591 11.625 234.45 11.675 234.266 11.675H225.916V17.5H233.766C233.95 17.5 234.091 17.5583 234.191 17.675C234.308 17.775 234.366 17.9167 234.366 18.1V19.1C234.366 19.2667 234.308 19.4083 234.191 19.525C234.075 19.625 233.933 19.675 233.766 19.675H225.916V26.425C225.916 26.5917 225.858 26.7333 225.741 26.85C225.625 26.95 225.483 27 225.316 27H224.066ZM238.666 27C238.499 27 238.358 26.95 238.241 26.85C238.141 26.7333 238.091 26.5917 238.091 26.425V10.1C238.091 9.91667 238.141 9.775 238.241 9.675C238.358 9.55833 238.499 9.5 238.666 9.5H248.991C249.158 9.5 249.291 9.55833 249.391 9.675C249.508 9.775 249.566 9.91667 249.566 10.1V11.05C249.566 11.2167 249.516 11.3583 249.416 11.475C249.316 11.575 249.174 11.625 248.991 11.625H240.491V17.1H248.441C248.608 17.1 248.741 17.1583 248.841 17.275C248.958 17.375 249.016 17.5167 249.016 17.7V18.625C249.016 18.7917 248.958 18.9333 248.841 19.05C248.741 19.15 248.608 19.2 248.441 19.2H240.491V24.875H249.191C249.374 24.875 249.516 24.925 249.616 25.025C249.716 25.125 249.766 25.2667 249.766 25.45V26.425C249.766 26.5917 249.708 26.7333 249.591 26.85C249.491 26.95 249.358 27 249.191 27H238.666ZM258.877 27.25C257.494 27.25 256.294 27.0333 255.277 26.6C254.277 26.1667 253.51 25.6 252.977 24.9C252.444 24.1833 252.16 23.4167 252.127 22.6C252.127 22.4667 252.177 22.35 252.277 22.25C252.394 22.1333 252.527 22.075 252.677 22.075H253.952C254.269 22.075 254.485 22.2417 254.602 22.575C254.752 23.275 255.177 23.875 255.877 24.375C256.594 24.875 257.594 25.125 258.877 25.125C260.26 25.125 261.302 24.8833 262.002 24.4C262.702 23.9 263.052 23.2083 263.052 22.325C263.052 21.7583 262.877 21.3 262.527 20.95C262.194 20.6 261.694 20.2917 261.027 20.025C260.36 19.7583 259.36 19.425 258.027 19.025C256.727 18.6583 255.694 18.2667 254.927 17.85C254.16 17.4333 253.585 16.9167 253.202 16.3C252.819 15.6833 252.627 14.9083 252.627 13.975C252.627 13.075 252.869 12.2667 253.352 11.55C253.852 10.8333 254.56 10.275 255.477 9.875C256.394 9.45833 257.485 9.25 258.752 9.25C260.052 9.25 261.169 9.48333 262.102 9.95C263.035 10.4 263.744 10.975 264.227 11.675C264.71 12.375 264.969 13.075 265.002 13.775C265.002 13.9083 264.952 14.025 264.852 14.125C264.769 14.225 264.644 14.275 264.477 14.275H263.152C262.802 14.275 262.585 14.1167 262.502 13.8C262.402 13.1 262.01 12.525 261.327 12.075C260.644 11.6083 259.785 11.375 258.752 11.375C257.619 11.375 256.727 11.5917 256.077 12.025C255.427 12.4583 255.102 13.1 255.102 13.95C255.102 14.5167 255.252 14.9833 255.552 15.35C255.869 15.7167 256.344 16.0417 256.977 16.325C257.61 16.5917 258.535 16.9 259.752 17.25C261.169 17.6333 262.285 18.0333 263.102 18.45C263.919 18.85 264.527 19.3583 264.927 19.975C265.327 20.575 265.527 21.3417 265.527 22.275C265.527 23.825 264.927 25.0417 263.727 25.925C262.527 26.8083 260.91 27.25 258.877 27.25ZM274.429 27.25C273.046 27.25 271.846 27.0333 270.829 26.6C269.829 26.1667 269.062 25.6 268.529 24.9C267.996 24.1833 267.712 23.4167 267.679 22.6C267.679 22.4667 267.729 22.35 267.829 22.25C267.946 22.1333 268.079 22.075 268.229 22.075H269.504C269.821 22.075 270.037 22.2417 270.154 22.575C270.304 23.275 270.729 23.875 271.429 24.375C272.146 24.875 273.146 25.125 274.429 25.125C275.812 25.125 276.854 24.8833 277.554 24.4C278.254 23.9 278.604 23.2083 278.604 22.325C278.604 21.7583 278.429 21.3 278.079 20.95C277.746 20.6 277.246 20.2917 276.579 20.025C275.912 19.7583 274.912 19.425 273.579 19.025C272.279 18.6583 271.246 18.2667 270.479 17.85C269.712 17.4333 269.137 16.9167 268.754 16.3C268.371 15.6833 268.179 14.9083 268.179 13.975C268.179 13.075 268.421 12.2667 268.904 11.55C269.404 10.8333 270.112 10.275 271.029 9.875C271.946 9.45833 273.037 9.25 274.304 9.25C275.604 9.25 276.721 9.48333 277.654 9.95C278.587 10.4 279.296 10.975 279.779 11.675C280.262 12.375 280.521 13.075 280.554 13.775C280.554 13.9083 280.504 14.025 280.404 14.125C280.321 14.225 280.196 14.275 280.029 14.275H278.704C278.354 14.275 278.137 14.1167 278.054 13.8C277.954 13.1 277.562 12.525 276.879 12.075C276.196 11.6083 275.337 11.375 274.304 11.375C273.171 11.375 272.279 11.5917 271.629 12.025C270.979 12.4583 270.654 13.1 270.654 13.95C270.654 14.5167 270.804 14.9833 271.104 15.35C271.421 15.7167 271.896 16.0417 272.529 16.325C273.162 16.5917 274.087 16.9 275.304 17.25C276.721 17.6333 277.837 18.0333 278.654 18.45C279.471 18.85 280.079 19.3583 280.479 19.975C280.879 20.575 281.079 21.3417 281.079 22.275C281.079 23.825 280.479 25.0417 279.279 25.925C278.079 26.8083 276.462 27.25 274.429 27.25ZM284.931 27C284.764 27 284.622 26.95 284.506 26.85C284.406 26.7333 284.356 26.5917 284.356 26.425V10.075C284.356 9.90833 284.406 9.775 284.506 9.675C284.622 9.55833 284.764 9.5 284.931 9.5H286.256C286.422 9.5 286.556 9.55833 286.656 9.675C286.772 9.775 286.831 9.90833 286.831 10.075V26.425C286.831 26.5917 286.772 26.7333 286.656 26.85C286.556 26.95 286.422 27 286.256 27H284.931ZM297.492 27.25C295.308 27.25 293.617 26.6833 292.417 25.55C291.233 24.4 290.608 22.675 290.542 20.375C290.525 19.875 290.517 19.1667 290.517 18.25C290.517 17.3333 290.525 16.6333 290.542 16.15C290.608 13.9 291.258 12.1917 292.492 11.025C293.725 9.84167 295.392 9.25 297.492 9.25C299.575 9.25 301.233 9.84167 302.467 11.025C303.7 12.1917 304.35 13.9 304.417 16.15C304.45 17.1167 304.467 17.8167 304.467 18.25C304.467 18.6667 304.45 19.375 304.417 20.375C304.35 22.675 303.717 24.4 302.517 25.55C301.333 26.6833 299.658 27.25 297.492 27.25ZM297.492 25.125C298.808 25.125 299.858 24.725 300.642 23.925C301.425 23.125 301.85 21.9 301.917 20.25C301.95 19.25 301.967 18.5833 301.967 18.25C301.967 17.8833 301.95 17.2167 301.917 16.25C301.85 14.6 301.417 13.375 300.617 12.575C299.833 11.775 298.792 11.375 297.492 11.375C296.175 11.375 295.117 11.775 294.317 12.575C293.533 13.375 293.108 14.6 293.042 16.25C293.025 16.7333 293.017 17.4 293.017 18.25C293.017 19.0833 293.025 19.75 293.042 20.25C293.108 21.9 293.533 23.125 294.317 23.925C295.117 24.725 296.175 25.125 297.492 25.125ZM308.686 27C308.519 27 308.377 26.95 308.261 26.85C308.161 26.7333 308.111 26.5917 308.111 26.425V10.1C308.111 9.91667 308.161 9.775 308.261 9.675C308.377 9.55833 308.519 9.5 308.686 9.5H309.836C310.136 9.5 310.344 9.61667 310.461 9.85L318.761 22.6V10.1C318.761 9.91667 318.811 9.775 318.911 9.675C319.027 9.55833 319.169 9.5 319.336 9.5H320.536C320.719 9.5 320.861 9.55833 320.961 9.675C321.077 9.775 321.136 9.91667 321.136 10.1V26.4C321.136 26.5667 321.077 26.7083 320.961 26.825C320.861 26.9417 320.727 27 320.561 27H319.361C319.111 27 318.911 26.8833 318.761 26.65L310.486 14.025V26.425C310.486 26.5917 310.427 26.7333 310.311 26.85C310.194 26.95 310.052 27 309.886 27H308.686ZM324.318 27C324.185 27 324.068 26.95 323.968 26.85C323.868 26.75 323.818 26.6333 323.818 26.5C323.818 26.3667 323.827 26.275 323.843 26.225L330.043 10.05C330.177 9.68333 330.443 9.5 330.843 9.5H332.543C332.943 9.5 333.21 9.68333 333.343 10.05L339.518 26.225L339.568 26.5C339.568 26.6333 339.518 26.75 339.418 26.85C339.318 26.95 339.202 27 339.068 27H337.793C337.61 27 337.468 26.9583 337.368 26.875C337.268 26.775 337.202 26.675 337.168 26.575L335.793 23.025H327.593L326.218 26.575C326.185 26.675 326.11 26.775 325.993 26.875C325.893 26.9583 325.76 27 325.593 27H324.318ZM335.068 20.875L331.693 12L328.318 20.875H335.068ZM342.816 27C342.65 27 342.508 26.95 342.391 26.85C342.291 26.7333 342.241 26.5917 342.241 26.425V10.075C342.241 9.90833 342.291 9.775 342.391 9.675C342.508 9.55833 342.65 9.5 342.816 9.5H344.141C344.308 9.5 344.441 9.55833 344.541 9.675C344.658 9.775 344.716 9.90833 344.716 10.075V24.825H353.016C353.2 24.825 353.341 24.8833 353.441 25C353.558 25.1 353.616 25.2417 353.616 25.425V26.425C353.616 26.5917 353.558 26.7333 353.441 26.85C353.325 26.95 353.183 27 353.016 27H342.816ZM174.75 57C174.583 57 174.442 56.95 174.325 56.85C174.225 56.7333 174.175 56.5917 174.175 56.425V40.1C174.175 39.9167 174.225 39.775 174.325 39.675C174.442 39.5583 174.583 39.5 174.75 39.5H181.1C182.983 39.5 184.467 39.9583 185.55 40.875C186.633 41.7917 187.175 43.1167 187.175 44.85C187.175 46.5833 186.633 47.9083 185.55 48.825C184.483 49.725 183 50.175 181.1 50.175H176.675V56.425C176.675 56.5917 176.617 56.7333 176.5 56.85C176.383 56.95 176.242 57 176.075 57H174.75ZM180.975 48.075C182.192 48.075 183.108 47.8 183.725 47.25C184.358 46.7 184.675 45.9 184.675 44.85C184.675 43.8 184.367 43 183.75 42.45C183.133 41.8833 182.208 41.6 180.975 41.6H176.65V48.075H180.975ZM190.79 57C190.623 57 190.482 56.95 190.365 56.85C190.265 56.7333 190.215 56.5917 190.215 56.425V40.1C190.215 39.9167 190.265 39.775 190.365 39.675C190.482 39.5583 190.623 39.5 190.79 39.5H196.89C198.807 39.5 200.307 39.95 201.39 40.85C202.473 41.75 203.015 43.05 203.015 44.75C203.015 46.0167 202.698 47.0583 202.065 47.875C201.448 48.6917 200.573 49.2583 199.44 49.575L203.29 56.225C203.34 56.325 203.365 56.4167 203.365 56.5C203.365 56.6333 203.307 56.75 203.19 56.85C203.09 56.95 202.973 57 202.84 57H201.64C201.39 57 201.19 56.9417 201.04 56.825C200.907 56.7083 200.782 56.5417 200.665 56.325L197.04 49.975H192.665V56.425C192.665 56.5917 192.607 56.7333 192.49 56.85C192.373 56.95 192.232 57 192.065 57H190.79ZM196.79 47.85C199.273 47.85 200.515 46.8083 200.515 44.725C200.515 42.6417 199.273 41.6 196.79 41.6H192.665V47.85H196.79ZM212.872 57.25C210.689 57.25 208.997 56.6833 207.797 55.55C206.614 54.4 205.989 52.675 205.922 50.375C205.906 49.875 205.897 49.1667 205.897 48.25C205.897 47.3333 205.906 46.6333 205.922 46.15C205.989 43.9 206.639 42.1917 207.872 41.025C209.106 39.8417 210.772 39.25 212.872 39.25C214.956 39.25 216.614 39.8417 217.847 41.025C219.081 42.1917 219.731 43.9 219.797 46.15C219.831 47.1167 219.847 47.8167 219.847 48.25C219.847 48.6667 219.831 49.375 219.797 50.375C219.731 52.675 219.097 54.4 217.897 55.55C216.714 56.6833 215.039 57.25 212.872 57.25ZM212.872 55.125C214.189 55.125 215.239 54.725 216.022 53.925C216.806 53.125 217.231 51.9 217.297 50.25C217.331 49.25 217.347 48.5833 217.347 48.25C217.347 47.8833 217.331 47.2167 217.297 46.25C217.231 44.6 216.797 43.375 215.997 42.575C215.214 41.775 214.172 41.375 212.872 41.375C211.556 41.375 210.497 41.775 209.697 42.575C208.914 43.375 208.489 44.6 208.422 46.25C208.406 46.7333 208.397 47.4 208.397 48.25C208.397 49.0833 208.406 49.75 208.422 50.25C208.489 51.9 208.914 53.125 209.697 53.925C210.497 54.725 211.556 55.125 212.872 55.125ZM224.066 57C223.9 57 223.758 56.95 223.641 56.85C223.541 56.7333 223.491 56.5917 223.491 56.425V40.1C223.491 39.9167 223.541 39.775 223.641 39.675C223.758 39.5583 223.9 39.5 224.066 39.5H230.416C232.3 39.5 233.783 39.9583 234.866 40.875C235.95 41.7917 236.491 43.1167 236.491 44.85C236.491 46.5833 235.95 47.9083 234.866 48.825C233.8 49.725 232.316 50.175 230.416 50.175H225.991V56.425C225.991 56.5917 225.933 56.7333 225.816 56.85C225.7 56.95 225.558 57 225.391 57H224.066ZM230.291 48.075C231.508 48.075 232.425 47.8 233.041 47.25C233.675 46.7 233.991 45.9 233.991 44.85C233.991 43.8 233.683 43 233.066 42.45C232.45 41.8833 231.525 41.6 230.291 41.6H225.966V48.075H230.291ZM240.106 57C239.94 57 239.798 56.95 239.681 56.85C239.581 56.7333 239.531 56.5917 239.531 56.425V40.1C239.531 39.9167 239.581 39.775 239.681 39.675C239.798 39.5583 239.94 39.5 240.106 39.5H250.431C250.598 39.5 250.731 39.5583 250.831 39.675C250.948 39.775 251.006 39.9167 251.006 40.1V41.05C251.006 41.2167 250.956 41.3583 250.856 41.475C250.756 41.575 250.615 41.625 250.431 41.625H241.931V47.1H249.881C250.048 47.1 250.181 47.1583 250.281 47.275C250.398 47.375 250.456 47.5167 250.456 47.7V48.625C250.456 48.7917 250.398 48.9333 250.281 49.05C250.181 49.15 250.048 49.2 249.881 49.2H241.931V54.875H250.631C250.815 54.875 250.956 54.925 251.056 55.025C251.156 55.125 251.206 55.2667 251.206 55.45V56.425C251.206 56.5917 251.148 56.7333 251.031 56.85C250.931 56.95 250.798 57 250.631 57H240.106ZM255.268 57C255.101 57 254.959 56.95 254.843 56.85C254.743 56.7333 254.693 56.5917 254.693 56.425V40.1C254.693 39.9167 254.743 39.775 254.843 39.675C254.959 39.5583 255.101 39.5 255.268 39.5H261.368C263.284 39.5 264.784 39.95 265.868 40.85C266.951 41.75 267.493 43.05 267.493 44.75C267.493 46.0167 267.176 47.0583 266.543 47.875C265.926 48.6917 265.051 49.2583 263.918 49.575L267.768 56.225C267.818 56.325 267.843 56.4167 267.843 56.5C267.843 56.6333 267.784 56.75 267.668 56.85C267.568 56.95 267.451 57 267.318 57H266.118C265.868 57 265.668 56.9417 265.518 56.825C265.384 56.7083 265.259 56.5417 265.143 56.325L261.518 49.975H257.143V56.425C257.143 56.5917 257.084 56.7333 256.968 56.85C256.851 56.95 256.709 57 256.543 57H255.268ZM261.268 47.85C263.751 47.85 264.993 46.8083 264.993 44.725C264.993 42.6417 263.751 41.6 261.268 41.6H257.143V47.85H261.268ZM275.279 57C275.112 57 274.971 56.95 274.854 56.85C274.754 56.7333 274.704 56.5917 274.704 56.425V41.725H269.904C269.737 41.725 269.596 41.675 269.479 41.575C269.379 41.4583 269.329 41.3167 269.329 41.15V40.1C269.329 39.9333 269.379 39.7917 269.479 39.675C269.596 39.5583 269.737 39.5 269.904 39.5H281.954C282.137 39.5 282.279 39.5583 282.379 39.675C282.496 39.775 282.554 39.9167 282.554 40.1V41.15C282.554 41.3167 282.496 41.4583 282.379 41.575C282.262 41.675 282.121 41.725 281.954 41.725H277.179V56.425C277.179 56.5917 277.121 56.7333 277.004 56.85C276.887 56.95 276.746 57 276.579 57H275.279ZM290.607 57C290.44 57 290.298 56.95 290.182 56.85C290.082 56.7333 290.032 56.5917 290.032 56.425V50.525L284.007 40.325C284.007 40.2917 283.998 40.2417 283.982 40.175C283.948 40.1083 283.932 40.05 283.932 40C283.932 39.8667 283.982 39.75 284.082 39.65C284.182 39.55 284.298 39.5 284.432 39.5H285.732C286.015 39.5 286.232 39.6417 286.382 39.925L291.257 48.025L296.132 39.925C296.315 39.6417 296.54 39.5 296.807 39.5H298.082C298.232 39.5 298.357 39.55 298.457 39.65C298.557 39.75 298.607 39.8667 298.607 40C298.607 40.0833 298.573 40.1917 298.507 40.325L292.507 50.525V56.425C292.507 56.5917 292.448 56.7333 292.332 56.85C292.215 56.95 292.073 57 291.907 57H290.607ZM312.564 57.25C311.18 57.25 309.98 57.0333 308.964 56.6C307.964 56.1667 307.197 55.6 306.664 54.9C306.13 54.1833 305.847 53.4167 305.814 52.6C305.814 52.4667 305.864 52.35 305.964 52.25C306.08 52.1333 306.214 52.075 306.364 52.075H307.639C307.955 52.075 308.172 52.2417 308.289 52.575C308.439 53.275 308.864 53.875 309.564 54.375C310.28 54.875 311.28 55.125 312.564 55.125C313.947 55.125 314.989 54.8833 315.689 54.4C316.389 53.9 316.739 53.2083 316.739 52.325C316.739 51.7583 316.564 51.3 316.214 50.95C315.88 50.6 315.38 50.2917 314.714 50.025C314.047 49.7583 313.047 49.425 311.714 49.025C310.414 48.6583 309.38 48.2667 308.614 47.85C307.847 47.4333 307.272 46.9167 306.889 46.3C306.505 45.6833 306.314 44.9083 306.314 43.975C306.314 43.075 306.555 42.2667 307.039 41.55C307.539 40.8333 308.247 40.275 309.164 39.875C310.08 39.4583 311.172 39.25 312.439 39.25C313.739 39.25 314.855 39.4833 315.789 39.95C316.722 40.4 317.43 40.975 317.914 41.675C318.397 42.375 318.655 43.075 318.689 43.775C318.689 43.9083 318.639 44.025 318.539 44.125C318.455 44.225 318.33 44.275 318.164 44.275H316.839C316.489 44.275 316.272 44.1167 316.189 43.8C316.089 43.1 315.697 42.525 315.014 42.075C314.33 41.6083 313.472 41.375 312.439 41.375C311.305 41.375 310.414 41.5917 309.764 42.025C309.114 42.4583 308.789 43.1 308.789 43.95C308.789 44.5167 308.939 44.9833 309.239 45.35C309.555 45.7167 310.03 46.0417 310.664 46.325C311.297 46.5917 312.222 46.9 313.439 47.25C314.855 47.6333 315.972 48.0333 316.789 48.45C317.605 48.85 318.214 49.3583 318.614 49.975C319.014 50.575 319.214 51.3417 319.214 52.275C319.214 53.825 318.614 55.0417 317.414 55.925C316.214 56.8083 314.597 57.25 312.564 57.25ZM323.065 57C322.899 57 322.757 56.95 322.64 56.85C322.54 56.7333 322.49 56.5917 322.49 56.425V40.1C322.49 39.9167 322.54 39.775 322.64 39.675C322.757 39.5583 322.899 39.5 323.065 39.5H333.39C333.557 39.5 333.69 39.5583 333.79 39.675C333.907 39.775 333.965 39.9167 333.965 40.1V41.05C333.965 41.2167 333.915 41.3583 333.815 41.475C333.715 41.575 333.574 41.625 333.39 41.625H324.89V47.1H332.84C333.007 47.1 333.14 47.1583 333.24 47.275C333.357 47.375 333.415 47.5167 333.415 47.7V48.625C333.415 48.7917 333.357 48.9333 333.24 49.05C333.14 49.15 333.007 49.2 332.84 49.2H324.89V54.875H333.59C333.774 54.875 333.915 54.925 334.015 55.025C334.115 55.125 334.165 55.2667 334.165 55.45V56.425C334.165 56.5917 334.107 56.7333 333.99 56.85C333.89 56.95 333.757 57 333.59 57H323.065ZM338.227 57C338.06 57 337.918 56.95 337.802 56.85C337.702 56.7333 337.652 56.5917 337.652 56.425V40.1C337.652 39.9167 337.702 39.775 337.802 39.675C337.918 39.5583 338.06 39.5 338.227 39.5H344.327C346.243 39.5 347.743 39.95 348.827 40.85C349.91 41.75 350.452 43.05 350.452 44.75C350.452 46.0167 350.135 47.0583 349.502 47.875C348.885 48.6917 348.01 49.2583 346.877 49.575L350.727 56.225C350.777 56.325 350.802 56.4167 350.802 56.5C350.802 56.6333 350.743 56.75 350.627 56.85C350.527 56.95 350.41 57 350.277 57H349.077C348.827 57 348.627 56.9417 348.477 56.825C348.343 56.7083 348.218 56.5417 348.102 56.325L344.477 49.975H340.102V56.425C340.102 56.5917 340.043 56.7333 339.927 56.85C339.81 56.95 339.668 57 339.502 57H338.227ZM344.227 47.85C346.71 47.85 347.952 46.8083 347.952 44.725C347.952 42.6417 346.71 41.6 344.227 41.6H340.102V47.85H344.227ZM358.696 57C358.246 57 357.938 56.7833 357.771 56.35L352.196 40.275L352.146 40C352.146 39.8667 352.196 39.75 352.296 39.65C352.396 39.55 352.513 39.5 352.646 39.5H353.946C354.263 39.5 354.488 39.65 354.621 39.95L359.496 54.125L364.396 39.95C364.43 39.85 364.505 39.75 364.621 39.65C364.738 39.55 364.88 39.5 365.046 39.5H366.346C366.48 39.5 366.596 39.55 366.696 39.65C366.813 39.75 366.871 39.8667 366.871 40L366.821 40.275L361.221 56.35C361.055 56.7833 360.755 57 360.321 57H358.696ZM370.453 57C370.286 57 370.145 56.95 370.028 56.85C369.928 56.7333 369.878 56.5917 369.878 56.425V40.075C369.878 39.9083 369.928 39.775 370.028 39.675C370.145 39.5583 370.286 39.5 370.453 39.5H371.778C371.945 39.5 372.078 39.5583 372.178 39.675C372.295 39.775 372.353 39.9083 372.353 40.075V56.425C372.353 56.5917 372.295 56.7333 372.178 56.85C372.078 56.95 371.945 57 371.778 57H370.453ZM383.014 57.25C380.781 57.25 379.081 56.65 377.914 55.45C376.764 54.25 376.147 52.5917 376.064 50.475C376.047 50.025 376.039 49.2917 376.039 48.275C376.039 47.2417 376.047 46.4917 376.064 46.025C376.147 43.925 376.772 42.275 377.939 41.075C379.106 39.8583 380.797 39.25 383.014 39.25C384.497 39.25 385.756 39.5167 386.789 40.05C387.822 40.5667 388.606 41.25 389.139 42.1C389.672 42.95 389.964 43.8583 390.014 44.825V44.875C390.014 45.0083 389.956 45.125 389.839 45.225C389.739 45.3083 389.622 45.35 389.489 45.35H388.114C387.781 45.35 387.572 45.1583 387.489 44.775C387.206 43.525 386.697 42.65 385.964 42.15C385.231 41.6333 384.247 41.375 383.014 41.375C380.147 41.375 378.664 42.9667 378.564 46.15C378.547 46.6 378.539 47.2917 378.539 48.225C378.539 49.1583 378.547 49.8667 378.564 50.35C378.664 53.5333 380.147 55.125 383.014 55.125C384.247 55.125 385.231 54.875 385.964 54.375C386.714 53.8583 387.222 52.975 387.489 51.725C387.539 51.5083 387.614 51.3583 387.714 51.275C387.814 51.1917 387.947 51.15 388.114 51.15H389.489C389.639 51.15 389.764 51.2 389.864 51.3C389.981 51.3833 390.031 51.5 390.014 51.65C389.964 52.6333 389.672 53.55 389.139 54.4C388.606 55.25 387.822 55.9417 386.789 56.475C385.756 56.9917 384.497 57.25 383.014 57.25ZM393.939 57C393.773 57 393.631 56.95 393.514 56.85C393.414 56.7333 393.364 56.5917 393.364 56.425V40.1C393.364 39.9167 393.414 39.775 393.514 39.675C393.631 39.5583 393.773 39.5 393.939 39.5H404.264C404.431 39.5 404.564 39.5583 404.664 39.675C404.781 39.775 404.839 39.9167 404.839 40.1V41.05C404.839 41.2167 404.789 41.3583 404.689 41.475C404.589 41.575 404.448 41.625 404.264 41.625H395.764V47.1H403.714C403.881 47.1 404.014 47.1583 404.114 47.275C404.231 47.375 404.289 47.5167 404.289 47.7V48.625C404.289 48.7917 404.231 48.9333 404.114 49.05C404.014 49.15 403.881 49.2 403.714 49.2H395.764V54.875H404.464C404.648 54.875 404.789 54.925 404.889 55.025C404.989 55.125 405.039 55.2667 405.039 55.45V56.425C405.039 56.5917 404.981 56.7333 404.864 56.85C404.764 56.95 404.631 57 404.464 57H393.939ZM414.151 57.25C412.767 57.25 411.567 57.0333 410.551 56.6C409.551 56.1667 408.784 55.6 408.251 54.9C407.717 54.1833 407.434 53.4167 407.401 52.6C407.401 52.4667 407.451 52.35 407.551 52.25C407.667 52.1333 407.801 52.075 407.951 52.075H409.226C409.542 52.075 409.759 52.2417 409.876 52.575C410.026 53.275 410.451 53.875 411.151 54.375C411.867 54.875 412.867 55.125 414.151 55.125C415.534 55.125 416.576 54.8833 417.276 54.4C417.976 53.9 418.326 53.2083 418.326 52.325C418.326 51.7583 418.151 51.3 417.801 50.95C417.467 50.6 416.967 50.2917 416.301 50.025C415.634 49.7583 414.634 49.425 413.301 49.025C412.001 48.6583 410.967 48.2667 410.201 47.85C409.434 47.4333 408.859 46.9167 408.476 46.3C408.092 45.6833 407.901 44.9083 407.901 43.975C407.901 43.075 408.142 42.2667 408.626 41.55C409.126 40.8333 409.834 40.275 410.751 39.875C411.667 39.4583 412.759 39.25 414.026 39.25C415.326 39.25 416.442 39.4833 417.376 39.95C418.309 40.4 419.017 40.975 419.501 41.675C419.984 42.375 420.242 43.075 420.276 43.775C420.276 43.9083 420.226 44.025 420.126 44.125C420.042 44.225 419.917 44.275 419.751 44.275H418.426C418.076 44.275 417.859 44.1167 417.776 43.8C417.676 43.1 417.284 42.525 416.601 42.075C415.917 41.6083 415.059 41.375 414.026 41.375C412.892 41.375 412.001 41.5917 411.351 42.025C410.701 42.4583 410.376 43.1 410.376 43.95C410.376 44.5167 410.526 44.9833 410.826 45.35C411.142 45.7167 411.617 46.0417 412.251 46.325C412.884 46.5917 413.809 46.9 415.026 47.25C416.442 47.6333 417.559 48.0333 418.376 48.45C419.192 48.85 419.801 49.3583 420.201 49.975C420.601 50.575 420.801 51.3417 420.801 52.275C420.801 53.825 420.201 55.0417 419.001 55.925C417.801 56.8083 416.184 57.25 414.151 57.25Z" fill="white"/>
</svg>
